# xmcd CD database file
# Copyright (C) 1996 Ti Kan
#
# Track frame offsets:
#	150
#	17407
#	38505
#	52248
#	76347
#	99888
#	114861
#	130365
#	150072
#	169713
#	183201
#	188382
#	201906
#	219207
#	233535
# Disc length: 3369 seconds
#
# Revision: 1
# Processed by: cddbd v1.4PL0 Copyright (c) Steve Scherf et al.
# Submitted via: CDCOPY 4.900
#
DISCID=a20d270f
DTITLE=The Spikedrivers - Delta Roots
DYEAR=1900
DGENRE=
TTITLE0=That's No Way To Get Along
TTITLE1=Front Porch Swing
TTITLE2=Soul Searchin' Blues
TTITLE3=Stop Breakin' Down Blues
TTITLE4=Rhythm Guitar
TTITLE5=Hey Hey
TTITLE6=Clyde
TTITLE7=Midnight Mademoiselle
TTITLE8=I Can't Be Satisfied
TTITLE9=Queen Of The One Night Stand
TTITLE10=Kansas City Kitty
TTITLE11=Am I High
TTITLE12=Life Is Fine
TTITLE13=How Long Has The Train Been Gone
TTITLE14=Hard To Get
EXTD=
EXTT0=
EXTT1=
EXTT2=
EXTT3=
EXTT4=
EXTT5=
EXTT6=
EXTT7=
EXTT8=
EXTT9=
EXTT10=
EXTT11=
EXTT12=
EXTT13=
EXTT14=
PLAYORDER=
